<svg xmlns="http://www.w3.org/2000/svg" viewBox="0 0 24 24" width="24" height="24" fill="none" stroke="#0D1821" stroke-width="1.6" stroke-linecap="round" stroke-linejoin="round"><path d="M12 21.8v-7.4" stroke="#7A5800"/><path d="M9.4 17.6c-1.7-.5-2.6-1.6-2.6-3.4 1.8 0 3 .8 3.4 2.4z" fill="#F4B634"/><path d="M14.6 17.6c1.7-.5 2.6-1.6 2.6-3.4-1.8 0-3 .8-3.4 2.4z" fill="#F4B634"/><ellipse cx="9.5" cy="11.4" rx="1.8" ry="3" transform="rotate(-26 9.5 11.4)" fill="#F4B634"/><ellipse cx="14.5" cy="11.4" rx="1.8" ry="3" transform="rotate(26 14.5 11.4)" fill="#F4B634"/><ellipse cx="9.7" cy="6.6" rx="1.8" ry="3" transform="rotate(-26 9.7 6.6)" fill="#F4B634"/><ellipse cx="14.3" cy="6.6" rx="1.8" ry="3" transform="rotate(26 14.3 6.6)" fill="#F4B634"/><ellipse cx="12" cy="4.4" rx="1.8" ry="3" fill="#F4B634"/></svg>